<!-- Generated by IcoMoon.io -->
<svg version="1.1" xmlns="http://www.w3.org/2000/svg" width="768" height="768" viewBox="0 0 768 768">
<title></title>
<g id="icomoon-ignore">
</g>
<path fill="#000" d="M566.624 329.376l-160-160c-12.512-12.512-32.768-12.512-45.248 0l-160 160c-12.512 12.512-12.512 32.768 0 45.248s32.768 12.512 45.248 0l137.376-137.376 137.376 137.376c12.512 12.512 32.768 12.512 45.248 0s12.512-32.768 0-45.248zM566.624 553.376l-160-160c-12.512-12.512-32.768-12.512-45.248 0l-160 160c-12.512 12.512-12.512 32.768 0 45.248s32.768 12.512 45.248 0l137.376-137.376 137.376 137.376c12.512 12.512 32.768 12.512 45.248 0s12.512-32.768 0-45.248z"></path>
</svg>
