<svg width="261" height="203" viewBox="0 0 261 203" fill="none" xmlns="http://www.w3.org/2000/svg">
<path d="M26.8661 151.607C26.5559 151.685 26.4007 151.724 26.0905 151.802C24.9654 151.921 24.4985 151.379 24.8841 150.292C25.3842 148.35 26.5831 146.562 28.0546 145.201C33.5146 140.027 39.6357 135.512 45.68 131.346C46.8036 130.568 47.2283 129.635 47.8082 128.664C50.8613 123.108 53.4099 117.514 55.5307 111.533C58.1124 103.456 60.4607 95.107 61.1402 86.6846C61.5545 81.1344 61.5035 75.7017 61.6075 70.2299C61.5564 64.7972 61.0008 59.3268 60.0957 53.7796C59.7012 50.9089 59.4618 47.999 58.7178 45.0515C58.6787 44.8963 58.6003 44.5861 58.5612 44.4309C58.7148 43.7321 58.1305 42.7244 58.9061 42.5287C59.5267 42.372 59.6848 43.6523 59.8414 44.2728C60.7435 48.5006 61.4513 52.6124 61.888 56.9577C62.2463 60.9927 62.6047 65.0277 62.6137 68.9858C62.6211 72.2843 62.7445 75.3885 62.7128 78.5318C62.6058 82.6843 62.1885 86.9151 61.732 90.9907C61.1626 96.58 59.7 101.9 58.0822 107.259C56.4645 112.617 54.6525 117.86 52.2576 122.755C51.524 124.426 50.557 125.825 49.7843 127.34C49.5524 127.729 49.1653 128.156 49.593 128.543C49.8265 128.814 50.2136 128.387 50.4847 128.153C54.7863 125.582 59.088 123.011 63.4288 120.596C68.0798 118.102 72.9643 115.879 77.6154 113.385C80.9485 111.553 84.1657 109.916 87.7323 108.356C93.5868 106.053 99.2847 103.13 105.373 101.098C107.195 100.473 109.212 99.964 110.917 98.8736C111.459 98.4067 112.623 98.4429 113.438 98.4022C113.748 98.3239 114.292 98.5167 114.37 98.827C114.372 99.4867 114.022 99.4099 113.596 99.6825C105.608 102.029 98.0089 105.267 90.2943 108.699C84.0527 111.43 77.9286 114.626 71.7654 117.666C68.3931 119.343 65.0207 121.019 61.6876 122.85C58.5487 124.798 55.4098 126.745 52.271 128.693C50.8371 129.549 49.4032 130.406 48.1636 131.379C47.156 131.964 46.4978 132.625 46.073 133.557C44.2565 136.821 41.9731 139.543 39.4955 142.148C36.2436 145.609 32.9134 148.76 28.6494 150.826C28.3783 151.06 28.0681 151.138 27.7969 151.372C27.4867 151.45 27.1764 151.528 26.8661 151.607ZM27.2126 150.364C27.678 150.246 28.4145 149.896 28.9959 149.584C32.2899 147.597 35.0402 145.418 37.6338 142.618C39.6853 140.285 41.6976 137.797 43.5155 135.193C43.7867 134.959 44.2129 134.687 43.9403 134.261C43.5517 134.029 43.1646 134.456 42.8935 134.69C40.3752 136.481 37.896 138.426 35.4168 140.372C32.4346 142.94 29.374 145.198 27.053 148.424C26.6659 148.852 26.2788 149.28 26.2803 149.939C26.2426 150.444 26.4761 150.715 27.2126 150.364ZM84.2384 86.7952C83.1525 87.0693 81.5213 86.4909 80.9761 85.6384C80.47 84.9411 80.3104 83.0011 80.7744 82.224C81.0063 81.8354 81.4326 81.5628 81.8211 81.7947C82.3649 81.9875 82.1329 82.3761 82.0561 82.7256C81.7865 83.6187 81.44 84.8613 82.5666 85.402C83.6932 85.9427 84.4674 85.0873 85.2807 84.3869C85.8229 83.92 86.1709 83.3372 86.558 82.9094C86.9451 82.4817 86.8667 82.1714 86.2071 82.1729C85.2762 82.4078 84.228 82.1774 83.8379 81.2857C83.4478 80.3941 84.222 79.5386 84.8411 78.7223C86.3894 77.0113 88.2525 77.2011 89.5372 79.0221C89.8098 79.4483 90.0824 79.8746 90.5478 79.7571C92.4878 79.5975 94.4654 78.9334 96.4821 78.4243C97.1027 78.2677 97.8392 77.9168 98.6149 77.721C98.77 77.6818 99.1962 77.4092 99.3137 77.8746C99.392 78.1849 99.0817 78.2632 98.8106 78.4967C95.9414 79.5509 93.3056 80.8763 90.5117 80.9214C89.6968 80.962 89.1938 81.5841 88.885 82.3221C88.1123 83.8372 87.067 84.9262 85.8274 85.8991C85.2852 86.366 84.8589 86.6386 84.2384 86.7952ZM101.933 87.4447C99.4507 88.0712 97.4295 86.6011 97.6178 84.0783C97.7685 82.0601 98.1135 80.1578 98.3033 78.2947C98.4569 77.5958 98.6497 77.0521 99.5037 77.1666C100.047 77.3594 100.049 78.0191 99.8561 78.5628C99.7054 80.5811 99.0894 82.7168 99.2881 84.8118C99.3303 86.2864 99.9132 86.6343 101.465 86.2427C102.977 85.696 104.138 84.4128 105.338 83.2848C106.81 81.9232 106.537 81.497 107.542 79.5932C107.89 79.0104 107.967 78.6609 107.19 78.197C106.412 77.7331 106.217 76.9574 106.641 76.0251C107.105 75.248 107.53 74.3157 107.955 73.3834C108.264 72.6454 108.806 72.1785 109.699 72.4481C110.708 72.5234 111.214 73.2208 111.139 74.2299C111.256 74.6953 111.219 75.1999 110.987 75.5884C110.872 76.4424 111.261 76.6744 111.842 76.3626C113.16 75.6999 114.517 75.1924 115.99 74.4906C118.084 73.6321 120.138 72.6185 122.232 71.7601C122.542 71.6818 122.968 71.4092 123.047 71.7194C123.358 72.3008 122.699 72.3023 122.543 72.3415C118.513 74.6789 114.482 77.0164 110.256 78.5781C109.48 78.7739 109.288 79.3176 108.94 79.9005C107.123 83.1643 106.545 84.7955 103.29 86.9371C103.019 87.1706 102.553 87.288 101.933 87.4447ZM108.623 77.34C109.244 77.1834 110.169 74.3097 109.896 73.8834C109.663 73.6123 109.508 73.6515 109.237 73.8849C108.617 74.7013 108.038 75.6727 107.807 76.721C107.769 77.2256 108.158 77.4575 108.623 77.34ZM142.189 66.8879C138.741 69.5733 135.099 72.1427 131.379 74.4018C129.906 75.1037 128.627 75.9215 127.154 76.6233C125.797 77.1309 124.478 77.1338 123.08 76.8266C121.721 76.6744 121.137 75.6668 120.669 74.4648C120.59 74.1546 120.667 73.8052 120.783 73.6109C121.556 72.0957 122.484 70.5414 123.839 69.3741C124.729 68.3244 126.01 68.1662 126.904 69.0956C127.605 69.9089 127.529 70.918 126.639 71.9678C125.71 72.8624 124.586 73.6411 123.463 74.4197C123.152 74.498 122.687 74.6155 122.765 74.9258C122.883 75.3912 123.271 75.6231 123.621 75.7C124.669 75.9304 125.755 75.6563 126.646 75.2663C129.477 74.0569 132.034 72.4213 134.747 70.7465C136.762 69.5778 138.893 68.2148 140.908 67.046C141.335 66.7734 141.645 66.6951 142.15 66.7328L142.189 66.8879ZM148.701 73C147.421 73.1581 146.257 73.1219 145.362 72.1926C144.428 71.1081 144.814 70.0207 145.355 68.8941C145.779 67.9618 146.165 66.8744 146.745 65.9029C146.822 65.5535 146.938 65.3592 146.704 65.0881C146.355 65.0113 146.239 65.2056 146.123 65.3999C144.689 66.2568 143.255 67.1138 141.782 67.8156C141.201 68.1274 140.735 68.2448 140.076 68.2463C138.562 68.1333 138.056 67.436 138.518 65.9991C139.443 63.1254 140.951 60.5996 142.808 58.1507C142.924 57.9564 143.195 57.7229 143.311 57.5286C143.853 57.0617 144.358 57.0994 145.096 57.4082C145.64 57.601 145.641 58.2607 145.603 58.7652C145.335 60.3181 144.873 61.7549 144.41 63.1918C144.334 63.5412 143.947 63.969 144.335 64.2009C144.569 64.472 144.995 64.1994 145.266 63.966C146.274 63.3816 147.242 62.6421 148.25 62.0577C148.831 61.746 149.452 61.5894 149.918 62.1316C150.541 62.6347 150.153 63.0624 149.805 63.6453C148.491 65.6273 147.409 67.8805 146.638 70.0554C146.445 70.5991 146.213 70.9877 146.486 71.4139C146.953 71.9562 147.573 71.7995 148.039 71.6821C150.132 70.8236 151.914 69.3838 153.501 67.8279C154.973 66.4664 156.484 65.26 157.528 63.5114C157.875 62.9285 158.496 62.7719 158.922 62.4993C159.233 62.421 159.388 62.3818 159.427 62.537C159.466 62.6921 159.505 62.8472 159.389 63.0415C156.526 66.7346 153.702 70.5827 149.438 72.649C149.128 72.7274 148.817 72.8057 148.701 73ZM140.499 66.6543C141.275 66.4586 141.234 65.6437 141.621 65.216C142.859 63.5834 143.359 61.6419 144.054 59.8165C144.17 59.6222 144.246 59.2728 143.897 59.196C143.703 59.08 143.587 59.2743 143.471 59.4686C142.272 61.2563 140.995 62.7338 140.339 64.7144C140.107 65.103 140.07 65.6076 140.032 66.1121C139.955 66.4615 140.189 66.7327 140.499 66.6543ZM120.25 181.09C119.125 181.209 118.039 181.483 117.069 181.562C112.452 182.233 109.731 179.949 109.526 175.215C109.44 171.607 110.248 168.267 111.715 164.927C114.301 158.828 117.47 153.078 121.611 147.908C126.37 141.921 131.946 136.553 137.522 131.185C141.394 127.567 145.655 124.182 149.956 120.951C150.653 120.445 151.156 119.823 151.115 119.008C151.299 114.506 151.638 109.965 151.512 105.542C151.548 104.377 151.429 103.252 151.155 102.166C151.077 101.856 150.804 101.43 151.269 101.312C151.735 101.195 151.968 101.466 152.047 101.776C152.476 102.823 152.75 103.909 152.83 104.879C152.917 109.147 152.81 113.3 152.393 117.531C152.471 117.841 152.123 118.424 152.667 118.617C153.055 118.849 153.442 118.421 153.753 118.343C158.789 114.761 163.865 111.335 168.98 108.063C169.135 108.024 169.251 107.83 169.561 107.752C169.872 107.673 170.066 107.789 170.299 108.06C170.533 108.332 170.262 108.565 170.146 108.759C169.604 109.226 169.217 109.654 168.751 109.771C163.635 112.383 159.258 115.963 154.608 119.117C152.593 120.285 152.17 121.877 152.019 123.896C151.644 129.601 150.764 135.269 149.225 140.938C148.032 145.364 146.684 149.83 144.947 154.064C143.094 158.492 141.047 162.804 138.378 166.613C135.09 171.238 131.296 175.166 126.646 178.32C124.631 179.489 122.577 180.502 120.25 181.09ZM119.51 180.121C121.256 179.846 122.768 179.299 124.241 178.597C127.729 176.726 130.557 174.198 133.266 171.204C136.402 167.937 138.916 164.167 140.886 160.204C145.251 151.347 148.374 142.143 149.904 132.515C150.401 129.255 150.782 126.188 150.93 122.85C151.046 122.656 151.123 122.307 150.734 122.075C150.346 121.843 150.114 122.231 149.843 122.465C145.814 125.462 142.018 128.73 138.106 132.193C133.266 136.55 128.852 141.294 124.478 146.194C121.653 149.382 119.294 153.113 116.935 156.843C115.428 159.369 114.153 162.166 112.879 164.963C111.373 168.148 110.565 171.488 110.457 174.98C110.311 178.978 112.294 180.952 116.213 180.788C117.378 180.824 118.424 180.395 119.51 180.121ZM188.669 80.1563C189.095 79.8837 189.484 80.1157 189.602 80.5811C189.874 81.0074 189.409 81.1248 188.982 81.3974C180.492 85.0255 171.963 88.4985 163.512 92.2818C158.472 94.5439 153.666 97.0771 148.665 99.4944C141.184 103.198 133.976 107.328 127.001 111.728C118.281 117.064 109.756 122.517 101.582 128.705C100.032 129.756 98.6768 130.924 96.8935 131.704C96.7776 131.898 96.5064 132.131 96.273 131.86C96.0395 131.589 96.4658 131.317 96.5818 131.122C97.124 130.655 97.7822 129.994 98.4796 129.488C103.903 125.479 109.366 121.625 115.063 118.042C121.883 113.68 128.703 109.319 135.601 105.267C143.12 101.059 150.872 97.1223 158.702 93.4956C166.92 89.4413 175.605 85.9291 183.94 82.3402C185.568 81.5992 187.041 80.8973 188.669 80.1563ZM159.8 140.084C158.825 138.184 159.791 136.126 159.941 134.107C160.317 128.402 161.43 123.006 163.047 117.647C163.817 114.812 164.975 112.21 165.939 109.491C167.907 104.209 170.068 99.0428 172.19 93.7216C174.352 88.5556 176.824 83.3112 179.334 78.222C181.189 74.4536 183.043 70.6853 185.246 66.9938C186.29 65.2451 187.179 63.5357 188.456 62.0582C188.688 61.6696 189.075 61.2418 189.462 60.8141C190.276 60.1138 191.051 59.918 191.984 60.3427C192.761 60.8067 192.957 61.5823 192.997 62.3972C193.121 65.5013 192.39 68.491 191.504 71.5199C190.697 74.859 189.695 78.0822 188.344 81.2285C187.264 84.1414 186.223 87.2094 184.794 90.0454C183.789 91.9492 183.018 94.124 182.092 96.3381C180.741 99.4844 179.234 102.67 177.923 105.971C174.913 113.662 170.777 120.811 166.835 128.077C165.251 130.952 163.627 133.672 161.693 136.471C160.842 137.675 160.887 140.469 161.86 141.709C162.521 142.367 163.181 142.366 163.917 142.015C165.275 141.507 166.32 140.418 167.21 139.369C169.377 136.841 171.351 134.198 173.479 131.516C173.595 131.321 173.788 130.778 174.176 131.01C174.565 131.241 174.178 131.669 173.907 131.903C171.778 134.585 170.039 137.499 168.105 140.298C167.214 141.348 166.285 142.242 165.122 142.866C162.642 144.152 160.738 143.147 159.8 140.084ZM191.676 61.7405C191.481 60.9648 190.782 60.8111 190.123 61.4723C188.265 63.2616 187.338 65.4756 186.179 67.4185C183.898 71.4595 181.773 75.4613 179.803 79.4239C177.911 83.6968 175.825 87.8538 173.933 92.1267C171.888 97.0984 169.881 102.225 168.03 107.313C166.102 112.75 164.019 118.227 162.79 123.817C162.214 126.768 161.794 129.679 161.374 132.591C161.297 132.94 161.104 133.484 161.648 133.677C162.152 133.714 162.19 133.21 162.422 132.821C164.665 129.285 166.674 125.477 168.683 121.67C172.163 115.841 174.904 109.704 177.801 103.527C179.576 99.4482 181.313 95.2145 183.244 91.0967C186.487 83.6774 189.381 76.1814 191.187 68.2997C191.648 66.2032 191.914 63.9906 191.676 61.7405ZM176.664 135.662C175.578 135.936 173.947 135.358 173.402 134.505C172.896 133.808 172.736 131.868 173.2 131.091C173.432 130.702 173.858 130.43 174.247 130.662C174.791 130.854 174.559 131.243 174.482 131.592C174.212 132.486 173.866 133.728 174.992 134.269C176.119 134.81 176.893 133.954 177.706 133.254C178.249 132.787 178.597 132.204 178.984 131.776C179.371 131.349 179.293 131.038 178.633 131.04C177.702 131.275 176.654 131.044 176.264 130.153C175.874 129.261 176.648 128.405 177.267 127.589C178.815 125.878 180.678 126.068 181.963 127.889C182.236 128.315 182.508 128.741 182.974 128.624C184.914 128.464 186.891 127.8 188.908 127.291C189.528 127.135 190.265 126.784 191.041 126.588C191.196 126.549 191.622 126.276 191.739 126.742C191.818 127.052 191.508 127.13 191.236 127.364C188.367 128.418 185.731 129.743 182.937 129.788C182.123 129.829 181.62 130.451 181.311 131.189C180.538 132.704 179.493 133.793 178.253 134.766C177.711 135.233 177.285 135.505 176.664 135.662ZM214.233 121.559C212.605 122.3 211.016 123.196 209.387 123.937C208.496 124.327 207.798 124.833 206.868 125.068C205.316 125.46 204.465 126.665 203.808 127.986C203.153 129.966 202.457 131.132 200.792 132.378C200.094 132.884 199.203 133.274 198.193 133.198C197.145 132.968 196.252 132.698 195.939 131.457C195.782 130.837 195.549 130.566 195.046 131.188C194.814 131.576 194.427 132.004 194.155 132.237C193.11 133.326 192.101 133.251 190.935 132.555C190.547 132.323 190.274 131.897 190.312 131.392C190.464 130.034 190.422 128.559 190.884 127.122C191.077 126.579 191.27 126.035 192.008 126.344C192.746 126.653 192.824 126.963 192.67 127.662C192.246 128.594 192.325 129.564 192.211 130.418C192.134 130.767 192.018 130.962 192.368 131.038C192.562 131.154 192.678 130.96 192.794 130.766C193.994 129.638 195 128.394 195.696 127.228C196.044 126.645 196.471 126.372 197.053 126.72C197.752 126.874 197.87 127.339 197.677 127.883C197.291 128.971 197.565 130.057 197.8 130.987C197.957 131.608 198.346 131.84 198.733 131.412C200.825 129.894 201.986 128.611 202.834 126.086C202.872 125.582 202.638 125.311 202.289 125.234C201.512 124.77 201.045 124.228 201.004 123.413C200.963 122.598 201.622 121.937 202.476 122.051C203.33 122.166 204.184 122.28 204.729 123.133C205.119 124.025 205.779 124.023 206.515 123.672C208.919 122.735 211.284 121.644 213.572 120.901C213.727 120.862 213.882 120.823 214.037 120.784C214.347 120.705 215.084 120.354 215.24 120.975C215.397 121.595 214.543 121.481 214.233 121.559ZM234.614 115.755C231.167 118.44 227.525 121.01 223.805 123.269C222.332 123.971 221.053 124.788 219.58 125.49C218.223 125.998 216.903 126.001 215.506 125.693C214.147 125.541 213.563 124.534 213.094 123.332C213.016 123.021 213.093 122.672 213.209 122.478C213.982 120.963 214.909 119.408 216.265 118.241C217.155 117.191 218.435 117.033 219.33 117.962C220.03 118.776 219.955 119.785 219.065 120.835C218.135 121.729 217.012 122.508 215.888 123.287C215.578 123.365 215.113 123.482 215.191 123.793C215.308 124.258 215.697 124.49 216.046 124.567C217.095 124.797 218.181 124.523 219.072 124.133C221.902 122.924 224.46 121.288 227.172 119.613C229.188 118.445 231.319 117.082 233.334 115.913C233.76 115.64 234.071 115.562 234.575 115.6L234.614 115.755ZM241.127 121.867C239.847 122.025 238.683 121.989 237.788 121.059C236.854 119.975 237.24 118.888 237.78 117.761C238.205 116.829 238.591 115.741 239.171 114.77C239.248 114.42 239.363 114.226 239.13 113.955C238.781 113.878 238.665 114.072 238.549 114.267C237.115 115.124 235.681 115.981 234.208 116.683C233.626 116.994 233.161 117.112 232.501 117.113C230.988 117 230.482 116.303 230.944 114.866C231.869 111.992 233.377 109.467 235.234 107.018C235.35 106.823 235.621 106.59 235.737 106.396C236.279 105.929 236.784 105.966 237.522 106.275C238.065 106.468 238.067 107.128 238.029 107.632C237.761 109.185 237.299 110.622 236.836 112.059C236.759 112.408 236.372 112.836 236.761 113.068C236.994 113.339 237.421 113.066 237.692 112.833C238.699 112.248 239.668 111.509 240.675 110.925C241.257 110.613 241.877 110.456 242.344 110.998C242.966 111.502 242.579 111.929 242.231 112.512C240.916 114.494 239.835 116.747 239.064 118.922C238.871 119.466 238.639 119.855 238.911 120.281C239.378 120.823 239.999 120.666 240.464 120.549C242.558 119.69 244.34 118.251 245.927 116.695C247.399 115.333 248.909 114.127 249.953 112.378C250.301 111.795 250.922 111.639 251.348 111.366C251.658 111.288 251.813 111.249 251.853 111.404C251.892 111.559 251.931 111.714 251.815 111.908C248.952 115.601 246.128 119.45 241.864 121.516C241.553 121.594 241.243 121.673 241.127 121.867ZM232.925 115.521C233.7 115.325 233.66 114.511 234.047 114.083C235.285 112.45 235.785 110.509 236.479 108.683C236.595 108.489 236.672 108.14 236.323 108.063C236.128 107.947 236.012 108.141 235.896 108.335C234.698 110.123 233.42 111.601 232.765 113.581C232.533 113.97 232.495 114.474 232.458 114.979C232.381 115.328 232.614 115.6 232.925 115.521Z" fill="#6B535F"/>
</svg>
