<svg width="250" height="163" viewBox="0 0 250 163" fill="none" xmlns="http://www.w3.org/2000/svg">
<path d="M10.56 70.04C9.44 70.04 8 69.08 7.68 68.12C7.36 67.32 7.68 65.4 8.32 64.76C8.64 64.44 9.12 64.28 9.44 64.6C9.92 64.92 9.6 65.24 9.44 65.56C8.96 66.36 8.32 67.48 9.28 68.28C10.24 69.08 11.2 68.44 12.16 67.96C12.8 67.64 13.28 67.16 13.76 66.84C14.24 66.52 14.24 66.2 13.6 66.04C12.64 66.04 11.68 65.56 11.52 64.6C11.36 63.64 12.32 63 13.12 62.36C15.04 61.08 16.8 61.72 17.6 63.8C17.76 64.28 17.92 64.76 18.4 64.76C20.32 65.08 22.4 64.92 24.48 64.92C25.12 64.92 25.92 64.76 26.72 64.76C26.88 64.76 27.36 64.6 27.36 65.08C27.36 65.4 27.04 65.4 26.72 65.56C23.68 65.88 20.8 66.52 18.08 65.88C17.28 65.72 16.64 66.2 16.16 66.84C15.04 68.12 13.76 68.92 12.32 69.56C11.68 69.88 11.2 70.04 10.56 70.04ZM34.9175 71.16C32.9975 71.16 31.5575 70.2 31.0775 68.28C30.9175 67.64 30.7575 67.96 30.4375 68.12C29.4775 68.76 28.5175 69.4 27.3975 70.04C26.5975 70.68 25.6375 70.68 24.6775 70.04C24.0375 69.56 23.8775 68.92 24.1975 68.12C24.8375 67 25.6375 65.88 26.5975 65.08C26.9175 64.76 27.2375 64.44 27.7175 64.92C28.1975 65.4 28.0375 65.72 27.5575 66.2C27.2375 66.68 26.7575 67.32 26.2775 67.8C26.1175 68.12 25.7975 68.44 26.1175 68.76C26.4375 69.08 26.5975 68.76 26.9175 68.6C28.5175 67.8 29.6375 66.68 31.0775 65.56C31.7175 65.24 32.3575 64.76 32.9975 64.28C33.6375 63.96 34.1175 63.96 34.4375 64.28C34.9175 64.76 34.5975 65.24 34.2775 65.56C33.7975 66.36 33.1575 67.16 32.9975 68.12C32.6775 69.08 32.9975 69.56 34.1175 69.72C35.0775 69.88 35.8775 69.56 36.6775 69.4C39.7175 68.28 42.4375 66.68 45.3175 65.24C45.7975 65.08 46.4375 64.6 46.5975 64.92C46.9175 65.56 46.1175 65.72 45.6375 66.04C43.5575 67.64 41.3175 69.08 38.7575 70.04C37.6375 70.52 36.3575 71.16 34.9175 71.16ZM52.3763 72.44C51.0963 72.28 49.9763 71.96 49.3363 70.84C48.6963 69.56 49.3363 68.6 50.1363 67.64C50.7763 66.84 51.4163 65.88 52.2163 65.08C52.3763 64.76 52.5363 64.6 52.3763 64.28C52.0563 64.12 51.8963 64.28 51.7363 64.44C50.1363 64.92 48.5363 65.4 46.9363 65.72C46.2963 65.88 45.8163 65.88 45.1762 65.72C43.7362 65.24 43.4162 64.44 44.2162 63.16C45.8163 60.6 47.8963 58.52 50.2963 56.6C50.4563 56.44 50.7763 56.28 50.9362 56.12C51.5763 55.8 52.0563 55.96 52.6963 56.44C53.1763 56.76 53.0163 57.4 52.8563 57.88C52.2163 59.32 51.4163 60.6 50.6163 61.88C50.4563 62.2 49.9763 62.52 50.2963 62.84C50.4563 63.16 50.9362 63 51.2563 62.84C52.3763 62.52 53.4963 62.04 54.6163 61.72C55.2563 61.56 55.8963 61.56 56.2162 62.2C56.6963 62.84 56.2162 63.16 55.7363 63.64C53.9763 65.24 52.3763 67.16 51.0963 69.08C50.7763 69.56 50.4563 69.88 50.6163 70.36C50.9362 71 51.5763 71 52.0563 71C54.2963 70.68 56.3763 69.72 58.2963 68.6C60.0563 67.64 61.8163 66.84 63.2563 65.4C63.7363 64.92 64.3763 64.92 64.8563 64.76C65.1763 64.76 65.3363 64.76 65.3363 64.92C65.3363 65.08 65.3363 65.24 65.1763 65.4C61.4963 68.28 57.8163 71.32 53.1763 72.28C52.8563 72.28 52.5363 72.28 52.3763 72.44ZM45.9763 64.28C46.7763 64.28 46.9363 63.48 47.4163 63.16C49.0163 61.88 49.9763 60.12 51.0963 58.52C51.2563 58.36 51.4163 58.04 51.0963 57.88C50.9362 57.72 50.7763 57.88 50.6163 58.04C49.0163 59.48 47.4163 60.6 46.2963 62.36C45.9763 62.68 45.8163 63.16 45.6562 63.64C45.4962 63.96 45.6562 64.28 45.9763 64.28ZM94.3025 102.68C91.7425 102.68 90.7825 101.24 91.2625 99C91.5825 97.24 92.5425 95.8 93.5025 94.36C97.0225 89.08 101.342 84.44 106.142 80.44C108.862 78.36 111.422 76.12 113.983 73.88C114.463 73.56 114.463 73.08 114.463 72.6C114.143 70.52 113.663 68.6 112.863 66.68C112.543 65.88 112.223 65.08 112.223 64.28C111.742 62.04 113.663 59.8 116.063 60.12C116.223 60.12 116.543 60.12 116.703 60.28C117.023 60.28 117.183 60.44 117.023 60.6C117.023 60.92 116.863 60.92 116.703 60.92C116.063 60.92 115.583 61.08 115.103 61.24C113.343 62.2 113.183 62.84 113.663 64.76C114.303 67 115.423 69.24 115.743 71.64C115.903 72.44 116.383 71.96 116.703 71.8C119.103 70.04 121.343 68.28 123.583 66.52C124.383 66.04 125.183 65.4 125.983 64.92C126.303 64.6 126.623 64.6 126.783 64.92C127.103 65.24 126.943 65.4 126.783 65.72C126.623 65.88 126.303 66.04 126.143 66.2C122.783 68.44 119.743 71 116.543 73.56C116.223 73.72 115.903 74.04 115.903 74.68C116.223 80.76 113.823 86.04 110.142 90.84C108.062 93.56 105.662 95.96 103.102 98.2C100.862 100.12 98.3025 101.72 95.4225 102.52C94.9425 102.68 94.4625 102.68 94.3025 102.68ZM92.5425 99.96C92.3825 101.72 92.8625 102.04 94.4625 101.72C95.9025 101.4 97.0225 100.92 98.3025 100.28C102.782 97.56 106.462 94.04 109.502 89.88C112.223 85.88 114.303 81.4 114.623 76.6C114.623 76.12 114.943 75.8 114.463 75.48C113.983 75.32 113.823 75.64 113.503 75.8C110.622 78.36 107.582 80.76 104.702 83.32C101.022 86.68 97.6625 90.36 94.7825 94.36C93.6625 96.12 92.5425 97.72 92.5425 99.96ZM127.904 70.04C126.784 70.04 125.344 69.08 125.024 68.12C124.704 67.32 125.024 65.4 125.664 64.76C125.984 64.44 126.464 64.28 126.784 64.6C127.264 64.92 126.944 65.24 126.784 65.56C126.304 66.36 125.664 67.48 126.624 68.28C127.584 69.08 128.544 68.44 129.504 67.96C130.144 67.64 130.624 67.16 131.104 66.84C131.584 66.52 131.584 66.2 130.944 66.04C129.984 66.04 129.024 65.56 128.864 64.6C128.704 63.64 129.664 63 130.464 62.36C132.384 61.08 134.144 61.72 134.944 63.8C135.104 64.28 135.264 64.76 135.744 64.76C137.664 65.08 139.744 64.92 141.824 64.92C142.464 64.92 143.264 64.76 144.064 64.76C144.224 64.76 144.704 64.6 144.704 65.08C144.704 65.4 144.384 65.4 144.064 65.56C141.024 65.88 138.144 66.52 135.424 65.88C134.624 65.72 133.984 66.2 133.504 66.84C132.384 68.12 131.104 68.92 129.664 69.56C129.024 69.88 128.544 70.04 127.904 70.04ZM165.861 64.92C165.381 65.56 164.901 65.72 164.261 66.04C159.301 67.48 154.341 68.92 149.381 70.2C148.101 70.68 146.981 70.68 145.701 70.84C144.581 70.84 143.461 70.36 142.821 69.24C142.181 68.28 142.661 67.16 143.301 66.36C143.941 65.4 144.741 64.44 145.541 63.48C145.701 63.16 146.021 63 146.501 63C146.981 62.84 147.301 62.84 147.621 63.32C147.781 63.8 147.621 64.12 147.301 64.44C146.341 65.4 145.381 66.2 144.581 67.32C144.261 67.8 143.941 68.28 144.261 68.92C144.581 69.56 145.381 69.56 145.861 69.4C148.901 69.08 151.781 68.12 154.661 67.32C158.181 66.52 161.701 65.72 165.221 64.76C165.381 64.76 165.541 64.6 165.861 64.92ZM166.003 63.8C166.003 64.6 166.163 65.24 166.163 65.72C166.003 66.52 165.523 67.16 165.363 67.96C165.043 68.76 165.363 69.24 166.163 68.92C168.723 68.12 171.123 67.16 173.523 66.2C174.483 65.88 175.122 65.24 175.923 64.92C176.243 64.76 176.723 64.92 177.043 64.76C177.043 64.92 177.043 65.08 177.043 65.24C176.563 65.56 176.083 65.88 175.603 66.04C173.203 67.32 170.643 68.6 168.243 69.72C167.123 70.2 166.003 70.52 164.723 69.88C164.082 69.56 163.602 68.92 163.762 67.96C164.242 66.84 164.723 65.56 165.203 64.44C165.363 64.28 165.523 64.28 166.003 63.8ZM167.443 60.12C167.603 59.48 167.603 58.84 167.763 58.2C167.763 58.04 168.243 58.04 168.403 58.04C168.563 58.04 168.723 58.36 168.563 58.52C168.403 59.16 168.083 59.64 167.923 60.28C167.763 60.28 167.603 60.28 167.443 60.12ZM201.253 65.24C200.293 65.24 199.653 65.4 198.853 65.72C194.373 67.8 189.413 68.76 184.613 69.72C183.013 70.04 181.413 69.88 180.453 68.28C180.133 67.8 179.973 67.96 179.653 68.28C179.173 68.76 178.533 69.24 178.053 69.88C176.933 70.68 175.973 70.52 175.332 69.24C174.372 67.32 174.852 65.24 176.933 64.28C177.573 63.96 178.213 63.48 178.853 63.16C179.493 62.84 179.973 63 180.293 63.48C180.773 63.96 180.933 64.28 180.133 64.6C179.013 64.76 178.213 65.4 177.253 65.88C176.933 66.2 176.613 66.52 176.453 67C176.453 67.48 176.453 67.96 176.773 68.12C177.253 68.6 177.413 67.96 177.573 67.8C178.853 66.84 179.973 65.72 181.092 64.76C181.573 64.28 181.893 63.96 182.533 64.44C183.013 64.76 183.013 65.24 182.693 65.88C182.373 66.52 181.733 67.16 182.213 67.8C182.853 68.44 183.653 68.28 184.453 68.12C189.573 67.48 194.533 66.04 199.493 64.76C200.133 64.6 200.773 64.12 201.253 65.08V65.24ZM198.595 70.2C198.115 68.12 199.555 66.36 200.195 64.44C201.955 59 204.355 54.04 207.235 49.24C208.675 46.68 210.435 44.44 212.035 42.04C215.235 37.4 218.595 32.92 221.955 28.28C225.315 23.8 228.995 19.32 232.675 15C235.395 11.8 238.115 8.59999 241.155 5.55999C242.595 4.11999 243.875 2.67999 245.475 1.56C245.795 1.23999 246.275 0.919994 246.755 0.599998C247.715 0.119995 248.515 0.119995 249.315 0.759996C249.955 1.4 249.955 2.2 249.795 3C249.155 6.04 247.715 8.76 246.115 11.48C244.515 14.52 242.755 17.4 240.675 20.12C238.915 22.68 237.155 25.4 235.075 27.8C233.635 29.4 232.355 31.32 230.915 33.24C228.835 35.96 226.595 38.68 224.515 41.56C219.715 48.28 213.955 54.2 208.355 60.28C206.115 62.68 203.875 64.92 201.315 67.16C200.195 68.12 199.555 70.84 200.195 72.28C200.675 73.08 201.315 73.24 202.115 73.08C203.555 72.92 204.835 72.12 205.955 71.32C208.675 69.4 211.235 67.32 213.955 65.24C214.115 65.08 214.435 64.6 214.755 64.92C215.075 65.24 214.595 65.56 214.275 65.72C211.555 67.8 209.155 70.2 206.595 72.44C205.475 73.24 204.355 73.88 203.075 74.2C200.355 74.84 198.755 73.4 198.595 70.2ZM248.675 2.04C248.675 1.23999 248.035 0.919994 247.235 1.4C244.995 2.67999 243.555 4.59999 241.955 6.19999C238.755 9.56 235.715 12.92 232.835 16.28C229.955 19.96 226.915 23.48 224.035 27.16C220.835 31.48 217.635 35.96 214.595 40.44C211.395 45.24 208.035 50.04 205.475 55.16C204.195 57.88 203.075 60.6 201.955 63.32C201.795 63.64 201.475 64.12 201.955 64.44C202.435 64.6 202.595 64.12 202.915 63.8C205.955 60.92 208.835 57.72 211.715 54.52C216.515 49.72 220.675 44.44 224.995 39.16C227.715 35.64 230.435 31.96 233.315 28.44C238.275 22.04 242.915 15.48 246.595 8.27999C247.555 6.35999 248.355 4.28 248.675 2.04ZM10.4 126.2C11.36 125.72 12.16 125.08 13.28 124.6C13.6 124.44 14.08 124.28 14.56 124.28C16 124.28 16.32 124.6 16.32 125.88C16.32 127.32 16.48 127.32 17.76 127.16C19.52 126.84 21.12 126.04 22.56 125.24C23.04 124.92 23.68 124.44 24.16 124.92C24.48 125.4 23.84 125.88 23.36 126.2C21.6 127.32 19.68 128.44 17.6 128.6C15.84 128.92 14.88 127.96 14.56 126.36C14.4 125.72 14.08 125.88 13.6 126.04C12.32 126.52 11.36 127.48 10.24 128.28C9.6 128.92 8.8 129.4 8.16 130.04C7.68 130.36 7.04 130.36 6.56 129.88C6.08 129.4 6.24 128.92 6.56 128.44C7.36 127.32 8.16 126.36 8.32 124.92C8.48 124.28 9.44 124.12 10.08 124.28C10.72 124.44 10.56 125.08 10.4 125.56C10.4 125.72 10.24 125.88 10.4 126.2ZM43.495 124.92C39.495 126.68 35.335 128.28 31.175 129.56C29.575 129.88 28.135 130.36 26.535 130.68C25.095 130.84 23.815 130.52 22.535 129.88C21.255 129.4 20.935 128.28 20.775 127C20.775 126.68 20.935 126.36 21.095 126.2C22.215 124.92 23.495 123.64 25.095 122.84C26.215 122.04 27.495 122.2 28.135 123.32C28.615 124.28 28.295 125.24 27.175 126.04C26.055 126.68 24.775 127.16 23.495 127.64C23.175 127.64 22.695 127.64 22.695 127.96C22.695 128.44 23.015 128.76 23.335 128.92C24.295 129.4 25.415 129.4 26.375 129.24C29.415 128.76 32.295 127.8 35.335 126.84C37.575 126.2 39.975 125.4 42.215 124.76C42.695 124.6 43.015 124.6 43.495 124.76V124.92ZM62.7137 124.76C61.2738 126.68 59.1938 127.8 57.4338 129.4C55.0338 131.32 52.6338 133.4 50.2338 135.32C48.1538 137.08 45.9138 138.52 43.5138 139.8C42.0738 140.44 40.4737 140.12 39.1937 139.16C37.7537 138.2 37.1137 136.76 37.2737 135C37.7537 131.96 39.0337 129.24 40.6337 126.68C44.9538 119.16 50.2338 112.28 55.5138 105.56C55.8338 105.08 56.3138 104.76 55.9938 104.28C55.8338 103.96 55.1938 104.12 54.7138 104.12C51.9938 104.44 49.1138 104.44 46.2338 104.76C40.7937 105.24 35.5137 105.72 30.0737 106.36C23.8337 107.32 17.5937 107.96 11.3537 108.76C8.47375 109.24 5.59375 109.56 2.71375 109.08C2.07375 109.08 1.27375 108.76 0.793746 108.28C0.633748 107.96 0.313747 107.8 0.47375 107.48C0.633748 107.32 0.953749 107.32 1.11375 107.48C2.71375 107.48 4.31375 107.32 5.75375 107.48C10.8737 108.28 15.8337 106.84 20.9537 106.36C27.9937 105.72 35.0337 104.6 42.2338 103.96C47.0338 103.64 51.8338 103.32 56.7938 102.84C57.4338 102.84 57.9138 102.52 58.2338 102.04C60.1538 99.64 62.2338 97.4 64.1538 95C65.2738 93.72 66.3938 92.44 67.5138 91.16C67.6738 90.84 67.8338 90.68 68.1538 90.52C68.6338 90.04 69.2738 89.88 69.9138 90.36C70.5538 90.68 70.2338 91.32 70.0738 91.96C69.2738 93.4 68.3138 94.84 67.3538 96.12C66.0738 97.88 64.6338 99.64 63.3538 101.4C63.0338 101.56 62.7137 101.88 62.8738 102.2C63.0338 102.68 63.5138 102.52 63.8338 102.52C69.9138 102.52 76.1538 102.36 82.2338 102.52C89.2738 102.68 96.4738 103.16 103.514 104.44C104.634 104.76 105.594 104.92 106.714 105.88C105.114 105.72 103.674 105.24 102.394 105.08C96.9538 104.44 91.5138 103.96 86.0738 103.8C81.5938 103.64 77.2738 103.32 72.7938 103.48C69.4338 103.48 66.0738 103.64 62.7137 103.64C61.5938 103.64 60.7938 104.12 60.1538 105.08C57.2738 108.6 54.3938 112.12 51.3538 115.48C49.1138 118.04 46.7138 120.28 44.6338 123C42.0738 126.52 39.8337 130.36 38.7137 134.84C38.3937 136.12 38.7137 137.4 39.8337 138.2C41.1137 139.16 42.3938 139 43.6738 138.36C45.7538 137.08 47.8338 135.64 49.9138 134.2C54.0738 130.84 57.9138 127.96 61.9138 124.92C62.0738 124.76 62.3938 124.6 62.7137 124.76ZM68.7938 91.8C68.3138 91.64 68.1538 91.96 67.9938 92.12C66.8738 93.4 65.5938 94.68 64.4738 96.12C63.0338 97.88 61.4338 99.8 59.9938 101.72C59.8338 102.04 59.5138 102.2 59.8338 102.52C60.1538 102.84 60.4738 102.68 60.6338 102.52C60.9538 102.36 61.1138 102.2 61.2738 102.04C63.5138 99.16 66.0738 96.44 67.9938 93.4C68.3138 92.92 68.7938 92.44 68.7938 91.8ZM52.4738 111.8C54.7138 109.72 56.6338 107.32 58.5538 105.08C58.8738 104.76 59.3538 104.44 59.0338 104.12C58.5538 103.64 58.0738 104.12 57.7538 104.44C57.5938 104.6 57.5938 104.76 57.4338 104.92C55.6738 107.16 53.9138 109.4 52.4738 111.8ZM85.5938 125.56C83.8338 125.88 82.0738 126.36 80.3138 126.68C79.3538 126.84 78.5538 127.16 77.5938 127.16C75.9938 127.16 74.8738 128.12 73.9138 129.24C72.7938 131 71.8338 131.96 69.9138 132.76C69.1138 133.08 68.1538 133.24 67.1938 132.92C66.2338 132.44 65.4338 131.96 65.4338 130.68C65.4338 130.04 65.2738 129.72 64.6338 130.2C64.3138 130.52 63.8338 130.84 63.5138 131C62.2338 131.8 61.2737 131.48 60.3137 130.52C59.9937 130.2 59.8337 129.72 59.9937 129.24C60.4737 127.96 60.7937 126.52 61.5938 125.24C61.9138 124.76 62.2338 124.28 62.8738 124.76C63.5138 125.24 63.5138 125.56 63.1938 126.2C62.5538 127 62.3938 127.96 62.0738 128.76C61.9138 129.08 61.7538 129.24 62.0738 129.4C62.2338 129.56 62.3938 129.4 62.5538 129.24C63.9938 128.44 65.2738 127.48 66.2338 126.52C66.7138 126.04 67.1938 125.88 67.6738 126.36C68.3138 126.68 68.3138 127.16 67.9938 127.64C67.3538 128.6 67.3538 129.72 67.3538 130.68C67.3538 131.32 67.6738 131.64 68.1538 131.32C70.5538 130.36 71.9938 129.4 73.4338 127.16C73.5938 126.68 73.4338 126.36 73.1138 126.2C72.4738 125.56 72.1537 124.92 72.3138 124.12C72.4738 123.32 73.2738 122.84 74.0738 123.16C74.8738 123.48 75.6738 123.8 75.9938 124.76C76.1538 125.72 76.7938 125.88 77.5938 125.72C80.1538 125.4 82.7137 124.92 85.1137 124.76C85.2738 124.76 85.4338 124.76 85.5938 124.76C85.9138 124.76 86.7138 124.6 86.7138 125.24C86.7138 125.88 85.9138 125.56 85.5938 125.56ZM88.2163 130.04C87.0963 130.04 85.6562 129.08 85.3362 128.12C85.0162 127.32 85.3362 125.4 85.9763 124.76C86.2963 124.44 86.7763 124.28 87.0963 124.6C87.5763 124.92 87.2563 125.24 87.0963 125.56C86.6163 126.36 85.9763 127.48 86.9363 128.28C87.8963 129.08 88.8563 128.44 89.8163 127.96C90.4563 127.64 90.9362 127.16 91.4163 126.84C91.8963 126.52 91.8963 126.2 91.2563 126.04C90.2963 126.04 89.3363 125.56 89.1763 124.6C89.0163 123.64 89.9763 123 90.7763 122.36C92.6963 121.08 94.4563 121.72 95.2563 123.8C95.4163 124.28 95.5763 124.76 96.0563 124.76C97.9763 125.08 100.056 124.92 102.136 124.92C102.776 124.92 103.576 124.76 104.376 124.76C104.536 124.76 105.016 124.6 105.016 125.08C105.016 125.4 104.696 125.4 104.376 125.56C101.336 125.88 98.4563 126.52 95.7363 125.88C94.9363 125.72 94.2963 126.2 93.8163 126.84C92.6963 128.12 91.4163 128.92 89.9763 129.56C89.3363 129.88 88.8563 130.04 88.2163 130.04ZM110.814 132.44C109.534 132.28 108.414 131.96 107.774 130.84C107.134 129.56 107.774 128.6 108.574 127.64C109.214 126.84 109.854 125.88 110.654 125.08C110.814 124.76 110.974 124.6 110.814 124.28C110.494 124.12 110.334 124.28 110.174 124.44C108.574 124.92 106.974 125.4 105.374 125.72C104.734 125.88 104.254 125.88 103.614 125.72C102.174 125.24 101.854 124.44 102.654 123.16C104.254 120.6 106.334 118.52 108.734 116.6C108.894 116.44 109.214 116.28 109.374 116.12C110.014 115.8 110.494 115.96 111.134 116.44C111.614 116.76 111.454 117.4 111.294 117.88C110.654 119.32 109.854 120.6 109.054 121.88C108.894 122.2 108.414 122.52 108.734 122.84C108.894 123.16 109.374 123 109.694 122.84C110.814 122.52 111.934 122.04 113.054 121.72C113.694 121.56 114.334 121.56 114.654 122.2C115.134 122.84 114.654 123.16 114.174 123.64C112.414 125.24 110.814 127.16 109.534 129.08C109.214 129.56 108.894 129.88 109.054 130.36C109.374 131 110.014 131 110.494 131C112.734 130.68 114.814 129.72 116.734 128.6C118.494 127.64 120.254 126.84 121.694 125.4C122.174 124.92 122.814 124.92 123.294 124.76C123.614 124.76 123.774 124.76 123.774 124.92C123.774 125.08 123.774 125.24 123.614 125.4C119.934 128.28 116.254 131.32 111.614 132.28C111.294 132.28 110.974 132.28 110.814 132.44ZM104.414 124.28C105.214 124.28 105.374 123.48 105.854 123.16C107.454 121.88 108.414 120.12 109.534 118.52C109.694 118.36 109.854 118.04 109.534 117.88C109.374 117.72 109.214 117.88 109.054 118.04C107.454 119.48 105.854 120.6 104.734 122.36C104.414 122.68 104.254 123.16 104.094 123.64C103.934 123.96 104.094 124.28 104.414 124.28ZM122.691 128.92C123.331 128.92 123.491 128.6 123.651 128.28C125.571 126.04 127.971 124.44 130.531 123.16C130.691 123 131.011 122.84 131.171 122.84C131.491 122.84 131.811 123 131.971 123.32C132.131 123.64 131.811 123.8 131.491 123.96C129.251 125.08 127.331 126.68 125.411 128.6C125.091 128.76 124.611 129.08 124.931 129.56C125.091 130.04 125.571 129.72 126.051 129.56C130.851 128.44 135.651 126.84 140.291 124.92C140.611 124.76 141.091 124.44 141.251 124.92C141.411 125.24 141.091 125.56 140.771 125.72C139.331 126.68 137.571 127.16 135.971 127.8C133.571 128.92 131.011 129.88 128.451 130.52C127.011 131 125.731 131 124.291 131C123.651 131 123.171 131 122.691 130.36C122.371 129.88 122.051 130.2 122.051 130.68C121.731 131.96 121.411 133.24 121.411 134.52C121.411 136.12 122.211 136.76 123.811 136.44C124.611 136.12 125.251 135.96 125.891 135.32C126.051 135.16 126.371 135 126.531 135.16C126.851 135.48 126.691 135.8 126.531 135.96C125.571 137.24 123.491 137.88 121.891 137.4C120.611 136.92 119.811 135.8 119.971 134.04C120.291 131.64 120.771 129.24 121.731 127C122.851 124.12 123.811 121.08 125.091 118.2C128.611 110.68 132.451 103.32 137.091 96.44C139.651 92.6 142.051 88.6 144.611 84.76C147.811 79.8 151.491 75.16 155.171 70.52C159.811 64.6 164.451 58.68 170.051 53.56C171.331 52.44 172.611 51.32 174.051 50.2C174.851 49.56 175.811 49.08 176.931 49.24C178.051 49.24 178.691 49.88 178.531 51C178.371 52.76 177.891 54.2 177.091 55.64C174.211 60.44 171.331 65.24 167.971 69.72C165.891 72.6 163.811 75.64 161.571 78.52C159.171 81.72 156.771 84.76 154.371 87.96C151.971 91 149.411 94.04 147.011 97.08C144.451 100.44 141.891 103.8 139.171 107.16C135.171 112.12 131.171 116.92 127.171 121.88C125.731 123.8 124.291 125.56 123.171 127.64C122.851 127.96 122.691 128.44 122.691 128.92ZM125.571 121.24C126.051 121.08 126.211 120.76 126.371 120.6C128.131 118.36 129.891 116.12 131.651 114.04C134.371 110.68 137.091 107.32 139.811 104.12C142.851 100.6 145.411 96.92 148.291 93.4C152.931 87.64 157.731 81.88 162.051 75.96C166.371 70.04 170.691 64.12 174.531 57.72C175.651 55.8 176.931 53.88 177.251 51.48C177.411 51 177.571 50.52 177.091 50.2C176.611 49.72 176.131 50.2 175.811 50.36C172.131 52.28 169.571 55.48 166.691 58.36C163.491 61.56 160.611 65.08 157.891 68.76C155.331 72.12 152.611 75.48 150.051 78.84C148.291 81.24 146.691 83.64 145.091 86.04C142.051 90.68 139.331 95.32 136.291 99.96C132.451 106.04 129.251 112.44 126.371 118.84C126.051 119.64 125.731 120.28 125.571 121.24ZM122.427 162.68C119.867 162.68 118.907 161.24 119.387 159C119.707 157.24 120.667 155.8 121.627 154.36C125.147 149.08 129.467 144.44 134.267 140.44C136.987 138.36 139.547 136.12 142.108 133.88C142.588 133.56 142.588 133.08 142.588 132.6C142.268 130.52 141.788 128.6 140.988 126.68C140.668 125.88 140.348 125.08 140.348 124.28C139.867 122.04 141.788 119.8 144.188 120.12C144.348 120.12 144.668 120.12 144.828 120.28C145.148 120.28 145.308 120.44 145.148 120.6C145.148 120.92 144.988 120.92 144.828 120.92C144.188 120.92 143.708 121.08 143.228 121.24C141.468 122.2 141.308 122.84 141.788 124.76C142.428 127 143.548 129.24 143.868 131.64C144.028 132.44 144.508 131.96 144.828 131.8C147.228 130.04 149.468 128.28 151.708 126.52C152.508 126.04 153.308 125.4 154.108 124.92C154.428 124.6 154.748 124.6 154.908 124.92C155.228 125.24 155.068 125.4 154.908 125.72C154.748 125.88 154.428 126.04 154.268 126.2C150.908 128.44 147.868 131 144.668 133.56C144.348 133.72 144.028 134.04 144.028 134.68C144.348 140.76 141.948 146.04 138.267 150.84C136.187 153.56 133.787 155.96 131.227 158.2C128.987 160.12 126.427 161.72 123.547 162.52C123.067 162.68 122.587 162.68 122.427 162.68ZM120.667 159.96C120.507 161.72 120.987 162.04 122.587 161.72C124.027 161.4 125.147 160.92 126.427 160.28C130.907 157.56 134.587 154.04 137.627 149.88C140.348 145.88 142.428 141.4 142.748 136.6C142.748 136.12 143.068 135.8 142.588 135.48C142.108 135.32 141.948 135.64 141.628 135.8C138.747 138.36 135.707 140.76 132.827 143.32C129.147 146.68 125.787 150.36 122.907 154.36C121.787 156.12 120.667 157.72 120.667 159.96Z" fill="white"/>
</svg>
