<svg width="11" height="65" viewBox="0 0 11 65" fill="none" xmlns="http://www.w3.org/2000/svg">
<path d="M0.8 1C0.733334 0.733332 1.2 0.533331 2.2 0.399995C3.2 0.199998 4.26667 0.0999992 5.4 0.0999992C6.53333 0.0999992 7.6 0.199998 8.6 0.399995C9.6 0.533331 10.0333 0.733332 9.9 1C8.83333 6.73333 8.03333 12.8667 7.5 19.4C6.96667 25.9333 6.43333 34.1667 5.9 44.1C5.9 44.3 5.66667 44.4 5.2 44.4C4.66667 44.4 4.4 44.3 4.4 44.1C4.06667 35.0333 3.63333 27.0333 3.1 20.1C2.63333 13.1667 1.86667 6.8 0.8 1ZM4.9 64.1C3.56667 64.1 2.5 63.7 1.7 62.9C0.9 62.1 0.5 61.0667 0.5 59.8C0.5 58.5333 0.9 57.5333 1.7 56.8C2.5 56 3.56667 55.6 4.9 55.6C6.3 55.6 7.36667 55.9667 8.1 56.7C8.9 57.4333 9.3 58.4667 9.3 59.8C9.3 61.1333 8.9 62.2 8.1 63C7.36667 63.7333 6.3 64.1 4.9 64.1Z" fill="#D978AC"/>
</svg>
